<svg xmlns="http://www.w3.org/2000/svg" xmlns:xlink="http://www.w3.org/1999/xlink" version="1.1" x="0px" y="0px" viewBox="0 0 64 80" enable-background="new 0 0 64 64" xml:space="preserve"><g><path d="M15.501,41.004c1.93,0,3.5-1.57,3.5-3.5s-1.57-3.5-3.5-3.5s-3.5,1.57-3.5,3.5S13.571,41.004,15.501,41.004z M15.501,36.004   c0.827,0,1.5,0.673,1.5,1.5s-0.673,1.5-1.5,1.5s-1.5-0.673-1.5-1.5S14.674,36.004,15.501,36.004z"/><path d="M57,63v-4c0-0.553-0.447-1-1-1c-0.552,0-1-0.448-1-1c0-0.553-0.447-1-1-1H10c-0.553,0-1,0.447-1,1c0,0.552-0.448,1-1,1   c-0.553,0-1,0.447-1,1v4c0,0.553,0.447,1,1,1s1-0.447,1-1v-3.185c0.848-0.302,1.514-0.968,1.815-1.815h42.369   c0.302,0.848,0.968,1.514,1.815,1.815V63c0,0.553,0.447,1,1,1S57,63.553,57,63z"/><path d="M1,53h1v10c0,0.553,0.447,1,1,1s1-0.447,1-1V53h56v10c0,0.553,0.447,1,1,1s1-0.447,1-1V53h1c0.553,0,1-0.447,1-1v-4   c0-0.553-0.447-1-1-1h-1v-6c0-3.859-3.141-7-7-7c0,0,0,0-0.001,0L52,34.002v-1.625c3.58-2.078,5.999-5.943,6-10.372   c0-0.001,0-0.001,0-0.001V13c0-2.967-2.167-5.432-5-5.91V4c0-0.553-0.447-1-1-1h-8c-0.005,0-0.009,0.003-0.013,0.003   C38.479,3.01,34,7.492,34,13v9.002c0,4.43,2.419,8.297,6,10.375v1.625L37.001,34C37,34,37,34,37,34c-3.859,0-7,3.141-7,7v2.004   h-0.999v-14c0-1.654-1.346-3-3-3h-21c-1.654,0-3,1.346-3,3v16.998c0,0.352,0.072,0.685,0.184,0.998H1c-0.553,0-1,0.447-1,1v4   C0,52.553,0.447,53,1,53z M44,5.002C44.004,5.002,44.006,5,44.01,5H51v3c0,0.553,0.447,1,1,1c2.206,0,4,1.794,4,4v2.586   l-1.293-1.293c-0.014-0.014-0.031-0.018-0.045-0.029c-0.053-0.048-0.111-0.08-0.171-0.114c-0.055-0.031-0.105-0.065-0.163-0.086   c-0.06-0.021-0.12-0.025-0.182-0.035c-0.065-0.01-0.128-0.022-0.193-0.02c-0.061,0.003-0.117,0.021-0.177,0.034   c-0.067,0.017-0.134,0.03-0.198,0.061c-0.017,0.008-0.035,0.007-0.052,0.016C53.491,14.139,49.987,16,46,16   c-3.968,0-7.492-1.862-7.527-1.881c-0.017-0.009-0.034-0.008-0.051-0.016c-0.063-0.029-0.129-0.044-0.197-0.06   c-0.061-0.015-0.119-0.033-0.182-0.035c-0.062-0.003-0.12,0.01-0.182,0.019c-0.065,0.009-0.13,0.015-0.192,0.037   c-0.056,0.02-0.105,0.054-0.158,0.084c-0.061,0.035-0.12,0.067-0.173,0.115c-0.014,0.012-0.031,0.016-0.045,0.029L36,15.586V13   C36,8.59,39.589,5.002,44,5.002z M36,22.002v-3.588l2.204-2.204C39.513,16.806,42.56,18,46,18s6.487-1.194,7.796-1.79L56,18.414   v3.588C56,27.515,51.514,32,46,32S36,27.515,36,22.002z M46,34c1.404,0,2.747-0.255,4-0.7v1.288l-1.27,1.269l-2.414-0.805   c-0.036-0.012-0.072-0.006-0.109-0.014c-0.068-0.015-0.135-0.025-0.207-0.025c-0.071,0-0.138,0.011-0.207,0.025   c-0.036,0.008-0.072,0.001-0.109,0.014l-2.414,0.805L42,34.588V33.3C43.253,33.745,44.596,34,46,34z M32,41c0-2.757,2.243-5,5-5   l3.586,0.002l1.707,1.705c0.016,0.016,0.037,0.021,0.054,0.035c0.065,0.059,0.137,0.104,0.216,0.144   c0.032,0.016,0.062,0.035,0.095,0.048C42.767,37.974,42.881,38,43,38c0.104,0,0.211-0.017,0.316-0.052L46,37.054l2.684,0.895   C48.789,37.983,48.896,38,49,38c0.119,0,0.233-0.026,0.343-0.066c0.034-0.013,0.063-0.032,0.095-0.048   c0.079-0.039,0.15-0.085,0.216-0.144c0.017-0.015,0.038-0.02,0.054-0.035l1.707-1.705L55,36c2.757,0,5,2.243,5,5v6H38.817   C38.928,46.687,39,46.354,39,46.004v-2c0-0.553-0.447-1-1-1h-6V41z M37,45.004v1c0,0.545-0.438,0.985-0.98,0.996h-7.202   c0.11-0.312,0.182-0.642,0.182-0.99c0-0.003,0.002-0.005,0.002-0.008v-0.998H37z M5.001,28.004h21c0.552,0,1,0.448,1,1v14.995   c0,0.002-0.001,0.003-0.001,0.005s0.001,0.003,0.001,0.005v1.99c0,0.002-0.001,0.003-0.001,0.005c0,0.545-0.438,0.985-0.98,0.996   H4.991c-0.547-0.006-0.99-0.449-0.99-0.998V29.004C4.001,28.452,4.449,28.004,5.001,28.004z M2,49h1.99   c0.004,0,0.006,0.002,0.01,0.002h20.989c0.004,0,0.007,0.002,0.01,0.002H36c0.014,0,0.025-0.004,0.039-0.004H60.98   c0.007,0,0.013,0.004,0.02,0.004S61.013,49,61.02,49H62v2H2V49z"/><path d="M46.03,46c0.552,0,1-0.447,1-1s-0.448-1-1-1H46.02c-0.552,0-0.994,0.447-0.994,1S45.478,46,46.03,46z"/><path d="M46.03,42c0.552,0,1-0.447,1-1s-0.448-1-1-1H46.02c-0.552,0-0.994,0.447-0.994,1S45.478,42,46.03,42z"/><path d="M14.533,22.947l0.76,0.76C15.48,23.895,15.735,24,16,24c0.266,0,0.52-0.105,0.707-0.293l0.915-0.916   C23.076,21.776,27,17.08,27,11.5C27,5.159,21.841,0,15.5,0S4,5.159,4,11.5C4,17.498,8.596,22.453,14.533,22.947z M15.5,2   c5.238,0,9.5,4.262,9.5,9.5c0,4.7-3.371,8.642-8.016,9.371c-0.209,0.033-0.402,0.132-0.552,0.281L16,21.586l-0.318-0.318   c-0.176-0.176-0.41-0.279-0.657-0.292C9.964,20.725,6,16.563,6,11.5C6,6.262,10.262,2,15.5,2z"/><path d="M18.793,14.695c0.195,0.195,0.451,0.293,0.707,0.293s0.512-0.098,0.707-0.293l2.488-2.488   c0.004-0.004,0.008-0.004,0.012-0.008C22.903,12.004,23,11.747,23,11.49s-0.097-0.513-0.293-0.709   c-0.004-0.004-0.008-0.004-0.012-0.008l-2.488-2.49c-0.391-0.391-1.023-0.391-1.414,0c-0.391,0.39-0.391,1.023,0,1.414l1.791,1.793   l-1.791,1.791C18.402,13.672,18.402,14.305,18.793,14.695z"/><path d="M10.793,14.695c0.195,0.195,0.451,0.293,0.707,0.293s0.512-0.098,0.707-0.293c0.391-0.391,0.391-1.023,0-1.414   l-1.791-1.791l1.791-1.793c0.391-0.391,0.391-1.024,0-1.414c-0.391-0.391-1.023-0.391-1.414,0l-2.488,2.49   c-0.004,0.004-0.008,0.004-0.012,0.008C8.097,10.978,8,11.233,8,11.49s0.097,0.514,0.293,0.709   c0.004,0.004,0.008,0.004,0.012,0.008L10.793,14.695z"/><path d="M13.685,16.937c0.105,0.035,0.212,0.052,0.316,0.052c0.419,0,0.81-0.265,0.948-0.684l3-9.004   c0.175-0.524-0.108-1.091-0.632-1.265c-0.528-0.177-1.092,0.108-1.265,0.632l-3,9.004C12.878,16.196,13.161,16.763,13.685,16.937z"/></g><text x="0" y="79" fill="#000000" font-size="5px" font-weight="bold" font-family="'Helvetica Neue', Helvetica, Arial-Unicode, Arial, Sans-serif">Created by lastspark</text><text x="0" y="84" fill="#000000" font-size="5px" font-weight="bold" font-family="'Helvetica Neue', Helvetica, Arial-Unicode, Arial, Sans-serif">from the Noun Project</text></svg>